<svg width="48" height="40" viewBox="0 0 48 40" fill="none" xmlns="http://www.w3.org/2000/svg">
  <path d="M21.1881 14.3846C21.0557 15.0096 21.1546 15.6623 21.4657 16.2182C21.7769 16.7742 22.2787 17.1945 22.8756 17.3993C23.4435 17.6208 24.0622 17.6721 24.6581 17.547C25.2611 17.4211 25.8092 17.1045 26.2237 16.6426C26.588 16.2176 26.8215 15.6935 26.8952 15.1352C26.9707 14.4329 26.8361 13.7239 26.509 13.1003C26.4109 12.9103 26.5624 12.7988 26.8298 12.8832C27.0209 12.9571 27.1905 13.0787 27.3229 13.2368C27.4553 13.3949 27.5463 13.5844 27.5874 13.7876C27.7999 14.6762 27.6792 15.6132 27.2487 16.4165C27.033 16.806 26.7514 17.154 26.4169 17.4445C26.0723 17.7261 25.6795 17.9407 25.2582 18.0776C24.2505 18.4181 23.1512 18.3423 22.1982 17.8666C21.6791 17.5879 21.2447 17.171 20.9415 16.6607C20.6458 16.1683 20.4763 15.6086 20.4484 15.0327C20.4163 14.14 20.6878 13.2632 21.2174 12.5495C21.747 11.8359 22.5024 11.3289 23.3568 11.1136C24.1594 10.9214 25.0042 11.0533 25.7128 11.4814C25.8666 11.5704 26.0136 11.6712 26.1524 11.7828C26.6605 12.226 26.7258 12.4521 26.6634 12.6692C26.6534 12.7211 26.6375 12.7717 26.6159 12.8199C26.5743 12.8862 26.4911 12.8892 26.3812 12.838C26.2356 12.7534 26.1001 12.6523 25.9772 12.5365C25.8643 12.428 25.7336 12.3466 25.6117 12.235C25.4899 12.1235 25.3592 12.0692 25.2226 12.0059C24.9609 11.8695 24.6788 11.7778 24.3877 11.7346C23.8001 11.6565 23.204 11.7898 22.7033 12.1114C22.3123 12.3532 21.9773 12.6777 21.7209 13.0626C21.4646 13.4476 21.293 13.8841 21.2178 14.3424L21.1881 14.3846Z" fill="#121224"/>
  <path d="M20.8857 16.7466L21.1565 14.589L26.8773 14.4178L27.1819 17.0548L26.268 18.7329L22.0367 18.9041L20.8857 16.7466Z" fill="white"/>
  <path d="M32.6834 8.4822C32.6365 12.157 26.7232 12.4247 26.5441 8.68694C26.5279 7.98376 26.7352 7.29374 27.136 6.71741C27.5367 6.14108 28.1099 5.70856 28.772 5.48287C30.7686 4.8389 32.5721 6.52231 32.6834 8.4822C32.6956 8.70619 33.0434 8.70794 33.0313 8.4822C32.9147 6.42257 31.1808 4.66041 29.0537 5.05589C27.3928 5.36212 26.1336 7.00004 26.2032 8.69044C26.3771 12.8902 32.986 12.6102 33.0382 8.4857C33.0387 8.43836 33.0204 8.39278 32.9875 8.35898C32.9546 8.32518 32.9096 8.30593 32.8626 8.30546C32.8155 8.305 32.7702 8.32336 32.7366 8.3565C32.703 8.38965 32.6839 8.43487 32.6834 8.4822Z" fill="#121224"/>
  <path d="M27.1482 11.4726L26.6743 9.24654L32.1919 6.88353L33.4783 9.24654L29.0438 12.226L27.1482 11.4726Z" fill="white"/>
  <path d="M27.0078 13.1827L26.8503 12.1678L26.7744 11.8024L26.6685 11.1511L26.5724 10.497C26.5397 10.3047 26.4895 10.1162 26.4375 9.93044C26.3516 9.69758 26.2963 9.45572 26.2716 9.20587C26.2677 9.12627 26.3118 9.12345 26.3986 9.16948C26.4388 9.19067 26.4927 9.22319 26.552 9.26511C26.6193 9.3105 26.6664 9.36456 26.6919 9.42567C26.8999 9.8937 27.0435 10.3815 27.1222 10.887C27.1531 11.1954 27.2738 11.4535 27.3288 11.7628L27.5697 12.7236L27.7399 13.3749C27.7919 13.6926 27.9962 13.9878 28.0571 14.2997C28.1235 14.537 27.8878 14.8651 27.9637 15.0986L28.007 15.253C28.0756 15.4417 27.9998 15.5288 27.8817 15.6063C27.8566 15.6239 27.8297 15.6411 27.8011 15.6578C27.7548 15.6808 27.709 15.6776 27.6574 15.6532C27.5827 15.62 27.5309 15.5756 27.5047 15.5224C27.4062 15.3187 27.3394 15.1052 27.3045 14.8829L27.256 14.5402C27.2252 14.4301 27.1941 14.3191 27.1777 14.2038L26.9902 13.1856L27.0078 13.1827Z" fill="#121224"/>
  <path d="M33.5973 9.88397L33.1675 8.95461L32.9956 8.62436L32.7155 8.02904L32.4434 7.42885C32.3593 7.25335 32.2609 7.08549 32.1615 6.92063C32.0186 6.71867 31.9003 6.50123 31.807 6.26924C31.7809 6.19441 31.8193 6.18175 31.9098 6.20585C31.9517 6.21688 32.009 6.23558 32.0738 6.26202C32.1467 6.28993 32.2041 6.33066 32.2442 6.38299C32.5631 6.7809 32.8302 7.21223 33.0445 7.67503C33.16 7.96135 33.3412 8.17942 33.4784 8.46104L33.9671 9.32009L34.3045 9.90087C34.4415 10.1912 34.7077 10.4256 34.851 10.7084C34.9778 10.9189 34.8614 11.2844 34.9956 11.4892L35.0782 11.6263C35.1932 11.7901 35.1505 11.8902 35.0673 11.9906C35.0499 12.013 35.0309 12.0354 35.0102 12.0578C34.9755 12.0902 34.9338 12.0975 34.8808 12.086C34.8048 12.0714 34.7459 12.0409 34.7074 11.9963C34.5616 11.8249 34.4411 11.637 34.3466 11.4335L34.2057 11.1186C34.1469 11.0209 34.0875 10.9224 34.0399 10.8165L33.5824 9.89071L33.5973 9.88397Z" fill="#121224"/>
  <path d="M38.4989 14.5744C38.4152 21.1365 27.8767 21.6146 27.5575 14.94C27.5286 13.6843 27.8981 12.4521 28.6123 11.423C29.3265 10.3938 30.348 9.62145 31.528 9.21842C35.0863 8.06848 38.3005 11.0746 38.4989 14.5744C38.5206 14.9744 39.1405 14.9775 39.1188 14.5744C38.9111 10.8965 35.8209 7.74975 32.0301 8.45596C29.0701 9.0028 26.826 11.9276 26.95 14.9462C27.2599 22.4458 39.0382 21.9458 39.1312 14.5806C39.132 14.4961 39.0995 14.4147 39.0408 14.3543C38.9821 14.294 38.902 14.2596 38.8182 14.2588C38.7343 14.2579 38.6536 14.2907 38.5937 14.3499C38.5338 14.4091 38.4997 14.4898 38.4989 14.5744Z" fill="#121224"/>
  <ellipse cx="37.5062" cy="25.137" rx="9.27503" ry="9.38356" fill="white"/>
  <path d="M27.7575 18.185L27.6221 14.8288L36.3555 10.274L38.5896 12.1918L40.5529 17.2946L30.0932 20.7535L27.7575 18.185Z" fill="white"/>
  <ellipse cx="32.9704" cy="14.4863" rx="5.34837" ry="5.5137" fill="white"/>
  <path d="M46.9321 25.2108C46.7908 36.3476 28.9924 37.159 28.4532 25.8312C28.4044 23.7002 29.0286 21.609 30.2348 19.8624C31.441 18.1157 33.1662 16.8049 35.159 16.1209C41.1686 14.1693 46.5971 19.2711 46.9321 25.2108C46.9687 25.8896 48.0157 25.8949 47.9791 25.2108C47.6283 18.9688 42.4092 13.6284 36.0071 14.8269C31.0078 15.755 27.2178 20.7189 27.4272 25.8418C27.9507 38.5697 47.843 37.7212 48 25.2214C48.0014 25.0779 47.9465 24.9398 47.8473 24.8373C47.7481 24.7349 47.6129 24.6765 47.4713 24.6751C47.3297 24.6737 47.1933 24.7294 47.0922 24.8298C46.9911 24.9303 46.9335 25.0673 46.9321 25.2108Z" fill="#121224"/>
  <path d="M45.4935 25.2084C45.4955 25.1787 45.4955 25.1489 45.4935 25.1192C45.4935 24.9652 45.4734 24.8071 45.4654 24.6531C45.3741 23.0088 44.7849 21.4323 43.7771 20.1364C42.7694 18.8405 41.3917 17.8875 39.83 17.4062C38.2683 16.9249 36.5978 16.9383 35.0439 17.4447C33.49 17.9511 32.1276 18.9261 31.1405 20.238C30.1534 21.55 29.5892 23.1358 29.5239 24.7813C29.4587 26.4269 29.8957 28.053 30.7758 29.4403C31.6559 30.8275 32.9368 31.909 34.4457 32.5389C35.9545 33.1687 37.6187 33.3166 39.2135 32.9625C40.1948 32.7441 41.1258 32.339 41.9566 31.7688C43.6356 30.6241 44.8208 28.879 45.2724 26.8865C45.3046 26.7446 45.3528 26.6007 45.3749 26.4589C45.3749 26.4305 45.387 26.4001 45.391 26.3677C45.4372 26.0474 45.3629 25.7779 45.2282 25.7597C45.0936 25.7414 44.9489 25.9826 44.9087 26.2825C44.9087 26.3089 44.9087 26.3373 44.9087 26.3656C44.8998 26.5125 44.8748 26.658 44.8343 26.7993L44.7198 27.2614L44.5671 27.7012C44.4631 27.9924 44.3409 28.2767 44.2013 28.5524C43.5758 29.7788 42.6332 30.8118 41.4732 31.5421C40.3132 32.2724 38.979 32.6729 37.6118 32.701C36.7031 32.7102 35.7999 32.5586 34.9431 32.2531C33.6509 31.7954 32.5076 30.9896 31.6372 29.9232C30.7668 28.8567 30.2025 27.5704 30.0055 26.2035C29.8757 25.2969 29.9043 24.3743 30.0899 23.4776C30.4711 21.6706 31.4956 20.0671 32.9697 18.9703C34.0657 18.143 35.3644 17.6324 36.7265 17.4933C38.0885 17.3543 39.4624 17.592 40.7005 18.1811C41.9387 18.7701 42.9944 19.6881 43.7542 20.8366C44.514 21.9851 44.9492 23.3206 45.0132 24.6997C45.0277 24.8344 45.0277 24.9703 45.0132 25.105V25.1922C45.0011 25.4942 45.1036 25.7495 45.2383 25.7637C45.3729 25.7779 45.4814 25.5327 45.4935 25.2084Z" fill="#121224"/>
  <path d="M42.4059 16.6344L41.0525 15.0537L40.5423 14.4924L39.6682 13.4799L38.8025 12.459C38.5425 12.1605 38.2662 11.8755 37.9908 11.5956C37.6208 11.2532 37.277 10.8837 36.9606 10.4888C36.8647 10.3614 36.9141 10.3388 37.0706 10.3781C37.143 10.396 37.2448 10.4267 37.3637 10.4705C37.4963 10.5166 37.6146 10.5851 37.7153 10.6737C38.5012 11.3475 39.2329 12.0796 39.9071 12.8668C40.2982 13.3542 40.9058 13.8718 41.3265 14.3506L42.8007 15.767L44.5842 17.6363C45.0111 18.13 44.2311 17.8429 44.662 18.3236C45.0137 18.6811 45.3891 19.0026 45.7478 19.35L45.9768 19.5828C46.2754 19.8605 46.2848 20.0327 46.2326 20.2065C46.2228 20.2451 46.2103 20.284 46.1954 20.3227C46.1666 20.379 46.1081 20.3924 46.0183 20.3738C45.891 20.3505 45.7781 20.2997 45.6858 20.2242C45.3343 19.9342 45.0092 19.6153 44.7124 19.2693L44.261 18.7335C44.0978 18.5677 43.9332 18.4004 43.7812 18.2203L42.3881 16.6463L42.4059 16.6344Z" fill="#121224"/>
  <path d="M27.2776 21.8938L27.2372 20.0946L27.2001 19.4399L27.1685 18.2836L27.1489 17.126C27.1378 16.784 27.1058 16.4422 27.0711 16.1045C27.0035 15.6736 26.9729 15.2383 26.9795 14.8005C26.9863 14.6625 27.0385 14.6737 27.1338 14.7843C27.1781 14.8353 27.2368 14.9108 27.3004 15.0043C27.373 15.1067 27.4206 15.2167 27.4419 15.3308C27.6196 16.2099 27.7188 17.0994 27.7391 17.9955C27.7315 18.5362 27.8365 19.0231 27.8569 19.5739L28.003 21.3106L28.1101 22.4904C28.126 23.0546 28.3238 23.6357 28.351 24.1931C28.3952 24.6245 28.0716 25.1019 28.1275 25.5301L28.1563 25.811C28.21 26.1597 28.1085 26.2817 27.9587 26.3716C27.9267 26.3926 27.8926 26.4123 27.8567 26.4306C27.7991 26.4533 27.7458 26.4311 27.6885 26.3703C27.6056 26.2862 27.551 26.1911 27.5278 26.0903C27.4412 25.7049 27.3931 25.314 27.3838 24.9198L27.3757 24.314C27.3552 24.1139 27.3345 23.912 27.3316 23.7082L27.2564 21.8923L27.2776 21.8938Z" fill="#121224"/>
  <path d="M41.8415 24.957C42.402 25.5471 42.4481 26.4953 42.2115 27.2296C41.5066 29.4201 38.7489 30.9332 36.5586 29.9768C37.3083 29.9702 37.9875 29.8044 38.6224 29.548C40.3193 28.8484 42.4284 27.0715 41.8415 24.957L41.8415 24.957Z" fill="#121224"/>
  <ellipse cx="3.19742" cy="3.16686" rx="3.19742" ry="3.16686" transform="matrix(-0.179713 0.983719 -0.983053 -0.183322 27.7537 17.12)" fill="#F05537"/>
  <path d="M15.3166 8.4822C15.3635 12.157 21.2768 12.4247 21.4559 8.68694C21.4721 7.98376 21.2648 7.29374 20.864 6.71741C20.4633 6.14108 19.8901 5.70856 19.228 5.48287C17.2314 4.8389 15.4279 6.52231 15.3166 8.4822C15.3044 8.70619 14.9566 8.70794 14.9687 8.4822C15.0853 6.42257 16.8192 4.66041 18.9463 5.05589C20.6072 5.36212 21.8664 7.00004 21.7968 8.69044C21.6229 12.8902 15.014 12.6102 14.9618 8.4857C14.9613 8.43836 14.9796 8.39278 15.0125 8.35898C15.0454 8.32518 15.0904 8.30593 15.1374 8.30546C15.1845 8.305 15.2298 8.32336 15.2634 8.3565C15.297 8.38965 15.3161 8.43487 15.3166 8.4822Z" fill="#121224"/>
  <path d="M22.433 19.6401C22.3564 19.9939 22.4136 20.3633 22.5939 20.678C22.7742 20.9927 23.065 21.2306 23.4108 21.3465C23.7399 21.4719 24.0984 21.5009 24.4437 21.4302C24.7931 21.3589 25.1107 21.1797 25.3509 20.9182C25.562 20.6777 25.6973 20.381 25.7399 20.065C25.7837 19.6675 25.7057 19.2661 25.5162 18.9131C25.4593 18.8056 25.5471 18.7425 25.7021 18.7903C25.8128 18.8321 25.9111 18.9009 25.9878 18.9904C26.0645 19.0799 26.1172 19.1872 26.141 19.3022C26.2642 19.8052 26.1942 20.3356 25.9448 20.7902C25.8198 21.0107 25.6566 21.2077 25.4628 21.3721C25.2631 21.5315 25.0355 21.653 24.7914 21.7305C24.2075 21.9232 23.5706 21.8803 23.0183 21.611C22.7176 21.4533 22.4658 21.2173 22.2902 20.9285C22.1188 20.6498 22.0206 20.333 22.0044 20.007C21.9858 19.5016 22.1432 19.0053 22.45 18.6014C22.7569 18.1974 23.1946 17.9104 23.6897 17.7886C24.1548 17.6798 24.6442 17.7545 25.0548 17.9968C25.144 18.0472 25.2291 18.1042 25.3096 18.1674C25.604 18.4183 25.6418 18.5462 25.6057 18.6691C25.5999 18.6985 25.5906 18.7271 25.5781 18.7544C25.554 18.792 25.5058 18.7937 25.4421 18.7647C25.3578 18.7168 25.2792 18.6596 25.208 18.594C25.1426 18.5326 25.0669 18.4865 24.9963 18.4234C24.9257 18.3602 24.85 18.3295 24.7708 18.2937C24.6191 18.2165 24.4557 18.1646 24.287 18.1401C23.9465 18.0959 23.6012 18.1714 23.311 18.3534C23.0845 18.4903 22.8903 18.6739 22.7418 18.8918C22.5933 19.1097 22.4938 19.3568 22.4503 19.6162L22.433 19.6401Z" fill="#121224"/>
  <path d="M20.852 11.4726L21.3259 9.24654L15.8083 6.88353L14.522 9.24654L18.9564 12.226L20.852 11.4726Z" fill="white"/>
  <path d="M20.9922 13.1827L21.1497 12.1678L21.2256 11.8024L21.3315 11.1511L21.4276 10.497C21.4603 10.3047 21.5105 10.1162 21.5625 9.93044C21.6484 9.69758 21.7037 9.45572 21.7284 9.20587C21.7323 9.12627 21.6882 9.12345 21.6014 9.16948C21.5612 9.19067 21.5073 9.22319 21.448 9.26511C21.3807 9.3105 21.3336 9.36456 21.3081 9.42567C21.1001 9.8937 20.9565 10.3815 20.8778 10.887C20.8469 11.1954 20.7262 11.4535 20.6712 11.7628L20.4303 12.7236L20.2601 13.3749C20.2081 13.6926 20.0038 13.9878 19.9429 14.2997C19.8765 14.537 20.1122 14.8651 20.0363 15.0986L19.993 15.253C19.9244 15.4417 20.0002 15.5288 20.1183 15.6063C20.1434 15.6239 20.1703 15.6411 20.1989 15.6578C20.2452 15.6808 20.291 15.6776 20.3426 15.6532C20.4173 15.62 20.4691 15.5756 20.4953 15.5224C20.5938 15.3187 20.6606 15.1052 20.6955 14.8829L20.744 14.5402C20.7748 14.4301 20.8059 14.3191 20.8223 14.2038L21.0098 13.1856L20.9922 13.1827Z" fill="#121224"/>
  <path d="M14.4027 9.88397L14.8325 8.95461L15.0044 8.62436L15.2845 8.02904L15.5566 7.42885C15.6407 7.25335 15.7391 7.08549 15.8385 6.92063C15.9814 6.71867 16.0997 6.50123 16.193 6.26924C16.2191 6.19441 16.1807 6.18175 16.0902 6.20585C16.0483 6.21688 15.991 6.23558 15.9262 6.26202C15.8533 6.28993 15.7959 6.33066 15.7558 6.38299C15.4369 6.7809 15.1698 7.21223 14.9555 7.67503C14.84 7.96135 14.6588 8.17942 14.5216 8.46104L14.0329 9.32009L13.6955 9.90087C13.5585 10.1912 13.2923 10.4256 13.149 10.7084C13.0222 10.9189 13.1386 11.2844 13.0044 11.4892L12.9218 11.6263C12.8068 11.7901 12.8495 11.8902 12.9327 11.9906C12.9501 12.013 12.9691 12.0354 12.9898 12.0578C13.0245 12.0902 13.0662 12.0975 13.1192 12.086C13.1952 12.0714 13.2541 12.0409 13.2926 11.9963C13.4384 11.8249 13.5589 11.637 13.6534 11.4335L13.7943 11.1186C13.8531 11.0209 13.9125 10.9224 13.9601 10.8165L14.4176 9.89071L14.4027 9.88397Z" fill="#121224"/>
  <path d="M9.50109 14.5744C9.58478 21.1365 20.1233 21.6146 20.4425 14.94C20.4714 13.6843 20.1019 12.4521 19.3877 11.423C18.6735 10.3938 17.652 9.62145 16.472 9.21842C12.9137 8.06848 9.69946 11.0746 9.50109 14.5744C9.4794 14.9744 8.85948 14.9775 8.88118 14.5744C9.08885 10.8965 12.1791 7.74975 15.9699 8.45596C18.9299 9.0028 21.174 11.9276 21.05 14.9462C20.7401 22.4458 8.96177 21.9458 8.86878 14.5806C8.86796 14.4961 8.90048 14.4147 8.95919 14.3543C9.0179 14.294 9.09799 14.2596 9.18184 14.2588C9.26569 14.2579 9.34643 14.2907 9.4063 14.3499C9.46617 14.4091 9.50027 14.4898 9.50109 14.5744Z" fill="#121224"/>
  <ellipse cx="9.27503" cy="9.38356" rx="9.27503" ry="9.38356" transform="matrix(-1 0 0 1 19.7688 15.7534)" fill="white"/>
  <path d="M20.2425 18.185L20.3779 14.8288L11.6445 10.274L9.41038 12.1918L7.44705 17.2946L17.9068 20.7535L20.2425 18.185Z" fill="white"/>
  <ellipse cx="5.34837" cy="5.5137" rx="5.34837" ry="5.5137" transform="matrix(-1 0 0 1 20.3779 8.97264)" fill="white"/>
  <path d="M1.06791 25.2108C1.20924 36.3476 19.0076 37.159 19.5468 25.8312C19.5956 23.7002 18.9714 21.609 17.7652 19.8624C16.559 18.1157 14.8338 16.8049 12.841 16.1209C6.83143 14.1693 1.40293 19.2711 1.06791 25.2108C1.03126 25.8896 -0.0156994 25.8949 0.0209446 25.2108C0.371675 18.9688 5.59078 13.6284 11.9929 14.8269C16.9922 15.755 20.7822 20.7189 20.5728 25.8418C20.0493 38.5697 0.157049 37.7212 3.8147e-06 25.2214C-0.00138474 25.0779 0.0535431 24.9398 0.152697 24.8373C0.25185 24.7349 0.387108 24.6765 0.528721 24.6751C0.670332 24.6737 0.806698 24.7294 0.907816 24.8298C1.00893 24.9303 1.06652 25.0673 1.06791 25.2108Z" fill="#121224"/>
  <path d="M2.50651 25.2084C2.5045 25.1787 2.5045 25.1489 2.50651 25.1192C2.50651 24.9652 2.52661 24.8071 2.53465 24.6531C2.62589 23.0088 3.21513 21.4323 4.22286 20.1364C5.23058 18.8405 6.60827 17.8875 8.16997 17.4062C9.73167 16.9249 11.4022 16.9383 12.9561 17.4447C14.51 17.9511 15.8724 18.9261 16.8595 20.238C17.8466 21.55 18.4108 23.1358 18.4761 24.7813C18.5413 26.4269 18.1043 28.053 17.2242 29.4403C16.3441 30.8275 15.0632 31.909 13.5543 32.5389C12.0455 33.1687 10.3813 33.3166 8.78651 32.9625C7.80519 32.7441 6.87419 32.339 6.04341 31.7688C4.36444 30.6241 3.17924 28.879 2.72757 26.8865C2.69541 26.7446 2.64718 26.6007 2.62508 26.4589C2.62508 26.4305 2.61302 26.4001 2.609 26.3677C2.56278 26.0474 2.63714 25.7779 2.77178 25.7597C2.90642 25.7414 3.05111 25.9826 3.0913 26.2825C3.0913 26.3089 3.0913 26.3373 3.0913 26.3656C3.10023 26.5125 3.12516 26.658 3.16566 26.7993L3.28021 27.2614L3.43294 27.7012C3.53694 27.9924 3.6591 28.2767 3.79869 28.5524C4.42416 29.7788 5.36678 30.8118 6.52678 31.5421C7.68677 32.2724 9.02097 32.6729 10.3882 32.701C11.2969 32.7102 12.2001 32.5586 13.0569 32.2531C14.3491 31.7954 15.4924 30.9896 16.3628 29.9232C17.2332 28.8567 17.7975 27.5704 17.9945 26.2035C18.1243 25.2969 18.0957 24.3743 17.9101 23.4776C17.5289 21.6706 16.5044 20.0671 15.0303 18.9703C13.9343 18.143 12.6356 17.6324 11.2735 17.4933C9.9115 17.3543 8.53763 17.592 7.29947 18.1811C6.06132 18.7701 5.00564 19.6881 4.24583 20.8366C3.48601 21.9851 3.05076 23.3206 2.98681 24.6997C2.97233 24.8344 2.97233 24.9703 2.98681 25.105V25.1922C2.99886 25.4942 2.89637 25.7495 2.76173 25.7637C2.62709 25.7779 2.51857 25.5327 2.50651 25.2084Z" fill="#121224"/>
  <path d="M5.59408 16.6344L6.94745 15.0537L7.45767 14.4924L8.33184 13.4799L9.19755 12.459C9.45753 12.1605 9.73382 11.8755 10.0092 11.5956C10.3792 11.2532 10.723 10.8837 11.0394 10.4888C11.1353 10.3614 11.0859 10.3388 10.9294 10.3781C10.857 10.396 10.7552 10.4267 10.6363 10.4705C10.5037 10.5166 10.3854 10.5851 10.2847 10.6737C9.49883 11.3475 8.76714 12.0796 8.09294 12.8668C7.70179 13.3542 7.09415 13.8718 6.67348 14.3506L5.19931 15.767L3.41581 17.6363C2.98889 18.13 3.76892 17.8429 3.33804 18.3236C2.98629 18.6811 2.61092 19.0026 2.2522 19.35L2.02319 19.5828C1.72461 19.8605 1.71517 20.0327 1.7674 20.2065C1.77724 20.2451 1.78968 20.284 1.80462 20.3227C1.83345 20.379 1.89186 20.3924 1.9817 20.3738C2.10897 20.3505 2.22186 20.2997 2.31424 20.2242C2.66574 19.9342 2.99081 19.6153 3.28762 19.2693L3.73901 18.7335C3.90216 18.5677 4.06681 18.4004 4.21877 18.2203L5.61187 16.6463L5.59408 16.6344Z" fill="#121224"/>
  <path d="M20.7224 21.8938L20.7628 20.0946L20.7999 19.4399L20.8315 18.2836L20.8511 17.126C20.8622 16.784 20.8942 16.4422 20.9289 16.1045C20.9965 15.6736 21.0271 15.2383 21.0205 14.8005C21.0137 14.6625 20.9615 14.6737 20.8662 14.7843C20.8219 14.8353 20.7632 14.9108 20.6996 15.0043C20.627 15.1067 20.5794 15.2167 20.5581 15.3308C20.3804 16.2099 20.2812 17.0994 20.2609 17.9955C20.2685 18.5362 20.1635 19.0231 20.1431 19.5739L19.997 21.3106L19.8899 22.4904C19.874 23.0546 19.6762 23.6357 19.649 24.1931C19.6048 24.6245 19.9284 25.1019 19.8725 25.5301L19.8437 25.811C19.79 26.1597 19.8915 26.2817 20.0413 26.3716C20.0733 26.3926 20.1074 26.4123 20.1433 26.4306C20.2009 26.4533 20.2542 26.4311 20.3115 26.3703C20.3944 26.2862 20.449 26.1911 20.4722 26.0903C20.5588 25.7049 20.6069 25.314 20.6162 24.9198L20.6243 24.314C20.6448 24.1139 20.6655 23.912 20.6684 23.7082L20.7436 21.8923L20.7224 21.8938Z" fill="#121224"/>
  <path d="M9.65939 29.2058C10.0776 29.9064 10.9711 30.1968 11.7334 30.1557C14.0072 30.0337 16.1656 27.7305 15.8193 25.3425C15.619 26.0734 15.2849 26.6943 14.8758 27.2483C13.7687 28.7255 11.5263 30.3267 9.65938 29.2058L9.65939 29.2058Z" fill="#121224"/>
</svg>